<?xml version="1.0" encoding="utf-8"?>
<!-- Generator: Adobe Illustrator 23.0.6, SVG Export Plug-In . SVG Version: 6.00 Build 0)  -->
<svg version="1.1" id="Capa_1" xmlns="http://www.w3.org/2000/svg" xmlns:xlink="http://www.w3.org/1999/xlink" x="0px" y="0px"
	 viewBox="0 0 815.5 195.9" style="enable-background:new 0 0 815.5 195.9;" xml:space="preserve">
<g>
	<g>
		<path d="M153.5,55.5c-7.2,0-13.1-5.9-13.1-13.1c0-1.8-1.5-3.3-3.3-3.3H32.7c-1.8,0-3.3,1.5-3.3,3.3c0,7.2-5.9,13.1-13.1,13.1
			c-1.8,0-3.3,1.5-3.3,3.3v26.1c0,1.8,1.5,3.3,3.3,3.3c7.2,0,13.1,5.9,13.1,13.1c0,1.8,1.5,3.3,3.3,3.3h104.5c1.8,0,3.3-1.5,3.3-3.3
			c0-7.2,5.9-13.1,13.1-13.1c1.8,0,3.3-1.5,3.3-3.3V58.8C156.8,57,155.3,55.5,153.5,55.5z M150.2,81.9c-8.2,1.4-14.7,7.9-16.1,16.1
			H35.7c-1.4-8.2-7.9-14.7-16.1-16.1V61.8c8.2-1.4,14.7-7.9,16.1-16.1h98.5c1.4,8.2,7.9,14.7,16.1,16.1v20.1H150.2z"/>
	</g>
</g>
<g>
	<g>
		<path d="M84.9,55.5c-9,0-16.3,7.3-16.3,16.3s7.3,16.3,16.3,16.3s16.3-7.3,16.3-16.3S93.9,55.5,84.9,55.5z M84.9,81.6
			c-5.4,0-9.8-4.4-9.8-9.8s4.4-9.8,9.8-9.8s9.8,4.4,9.8,9.8S90.3,81.6,84.9,81.6z"/>
	</g>
</g>
<g>
	<g>
		<path d="M192.7,0H29.4c-1.8,0-3.3,1.5-3.3,3.3v9.8h-9.8c-1.8,0-3.3,1.5-3.3,3.3v9.8H3.3c-1.8,0-3.3,1.5-3.3,3.3v84.9
			c0,1.8,1.5,3.3,3.3,3.3h163.3c1.8,0,3.3-1.5,3.3-3.3v-9.8h9.8c1.8,0,3.3-1.5,3.3-3.3v-9.8h9.8c1.8,0,3.3-1.5,3.3-3.3V3.3
			C195.9,1.5,194.5,0,192.7,0z M163.3,101.2v9.8H6.5V32.7h9.8h147V101.2z M176.4,98h-6.5V29.4c0-1.8-1.5-3.3-3.3-3.3h-147v-6.5
			h156.8V98z M189.4,84.9h-6.5V16.3c0-1.8-1.5-3.3-3.3-3.3h-147V6.5h156.8V84.9z"/>
	</g>
</g>
<g>
	<g>
		<path d="M194.6,157.4L155.5,128c-1-0.7-2.3-0.9-3.4-0.3c-1.1,0.6-1.8,1.7-1.8,2.9v13.1H98c-1.8,0-3.3,1.5-3.3,3.3v26.1
			c0,1.8,1.5,3.3,3.3,3.3h52.3v16.3c0,1.3,0.7,2.4,1.9,3c0.4,0.2,0.9,0.3,1.4,0.3c0.7,0,1.5-0.3,2.1-0.8l39.2-32.7
			c0.8-0.6,1.2-1.6,1.2-2.6C195.9,158.9,195.4,158,194.6,157.4z M156.8,185.7v-12.6c0-1.8-1.5-3.3-3.3-3.3h-52.3v-19.6h52.3
			c1.8,0,3.3-1.5,3.3-3.3v-9.8l30.7,23L156.8,185.7z"/>
	</g>
</g>
<g>
	<g>
		<path d="M84.9,143.7H71.8c-1.8,0-3.3,1.5-3.3,3.3v26.1c0,1.8,1.5,3.3,3.3,3.3h13.1c1.8,0,3.3-1.5,3.3-3.3V147
			C88.2,145.2,86.7,143.7,84.9,143.7z M81.6,169.8h-6.5v-19.6h6.5V169.8z"/>
	</g>
</g>
<g>
	<g>
		<path d="M52.3,143.7H39.2c-1.8,0-3.3,1.5-3.3,3.3v26.1c0,1.8,1.5,3.3,3.3,3.3h13.1c1.8,0,3.3-1.5,3.3-3.3V147
			C55.5,145.2,54.1,143.7,52.3,143.7z M49,169.8h-6.5v-19.6H49V169.8z"/>
	</g>
</g>
<g>
	<g>
		<path d="M16.3,143.7h-13c-1.8,0-3.3,1.5-3.3,3.3v26.1c0,1.8,1.5,3.3,3.3,3.3h13.1c1.8,0,3.3-1.5,3.3-3.3V147
			C19.6,145.2,18.1,143.7,16.3,143.7z M13.1,169.8H6.5v-19.6H13v19.6H13.1z"/>
	</g>
</g>
<g>
	<g>
		<path d="M269.5,130.3l-3.5-26.7h-6.5l-3.4,26.8l-2.6-26.9h-8.4l5.4,46.2h8.7l3.6-27.9l3.8,27.9h8.6l5.3-46.2h-8.2L269.5,130.3z
			 M285.3,149.7h9.8v-46.2h-9.8V149.7z M328.8,115.7c0-9.7-5.8-12.2-14.8-12.2h-12.3v46.2h9.8V129h2.8l4.9,20.7h10.2l-6.1-22.3
			C327.8,125.2,328.8,121.4,328.8,115.7z M314.4,123.2h-2.7v-12.8h3.2c3.7,0,4.9,2.3,4.9,6.3C319.7,120.8,318.5,123.2,314.4,123.2z
			 M344.6,129h7.7v-7h-7.7v-11.5h10.2v-7h-20v46.2h20.1v-6.9h-10.3L344.6,129L344.6,129z M370.9,108.3h7.5v41.4h6.2v-41.4h7.3v-4.8
			h-21.1v4.8H370.9z M418.3,115.8c0-8.8-4.2-12.3-13.1-12.3h-9v46.2h6.2V128h4.8l5.8,21.7h6l-6.3-23.1
			C416.7,125.2,418.3,121.2,418.3,115.8z M404.8,123.4h-2.4v-15.3h2.7c5.7,0,7.1,2.2,7.1,7.6C412.3,121.7,410,123.4,404.8,123.4z
			 M431.8,103.5l-9.5,46.2h5.8l2.1-11.6h9.1l2,11.6h5.9l-9.5-46.2H431.8z M431.1,133.5l3.7-20.8l3.7,20.8H431.1z M468.7,134.2
			L456,103.5h-4.2v46.2h5.3v-31.5l12.8,31.5h4v-46.2h-5.2L468.7,134.2L468.7,134.2z M495.6,126.3l-7.5-6.8c-2.1-1.9-2.9-3.5-2.9-6.3
			c0-3.4,1.8-5.1,4.9-5.1c4.6,0,5.6,3.9,5.9,8.4l5.3-1.5c-0.7-8.1-4.1-11.9-11.2-11.9c-6.4,0-10.4,3.9-10.4,10.7
			c0,4.6,1.3,7.5,4.3,10.2l7.5,6.8c2.8,2.6,4.8,4.7,4.8,8.9c0,3.5-1.7,5.4-4.9,5.4c-4.8,0-6-5-6.3-9.9l-5.5,1.5
			c0.4,8,4.1,13.5,11.8,13.5c6.2,0,10.7-4.2,10.7-11C502,133.5,499,129.4,495.6,126.3z M506.8,149.7h6.2v-21.6h8.5v-4.6H513v-15.4
			h11v-4.6h-17.2V149.7z M534.5,128.2h9v-4.6h-9v-15.3h11v-4.8h-17.3v46.2h17.4v-4.6h-11.2L534.5,128.2L534.5,128.2z M572.7,115.8
			c0-8.8-4.2-12.3-13.1-12.3h-9v46.2h6.2V128h4.8l5.8,21.7h6l-6.3-23.1C571.2,125.2,572.7,121.2,572.7,115.8z M559.3,123.4h-2.4
			v-15.3h2.7c5.7,0,7.1,2.2,7.1,7.6C566.7,121.7,564.5,123.4,559.3,123.4z M252,76.1h6.2V34.7h7.3v-4.8h-21.1v4.8h7.5v41.4H252z
			 M292.7,76.1L286.3,53c4-1.4,5.5-5.4,5.5-10.8c0-8.8-4.2-12.3-13.1-12.3h-9v46.2h6.2V54.4h4.8l5.8,21.7
			C286.5,76.1,292.7,76.1,292.7,76.1z M278.4,49.8H276V34.5h2.7c5.7,0,7.1,2.2,7.1,7.6C285.8,48.1,283.6,49.8,278.4,49.8z
			 M312.9,64.5l2,11.6h5.9l-9.5-46.2h-6l-9.5,46.2h5.8l2.1-11.6H312.9z M308.4,39l3.7,20.8h-7.4L308.4,39z M347.4,76.1V29.9h-5.2
			v30.7l-12.6-30.7h-4.2v46.2h5.3V44.6l12.8,31.5H347.4z M375.5,65.6c0-5.8-3-9.9-6.4-12.9l-7.5-6.8c-2.1-1.9-2.9-3.5-2.9-6.3
			c0-3.4,1.8-5.1,4.9-5.1c4.6,0,5.6,3.9,5.9,8.4l5.3-1.5c-0.7-8.1-4.1-11.9-11.2-11.9c-6.4,0-10.4,3.9-10.4,10.7
			c0,4.6,1.3,7.5,4.3,10.2l7.5,6.8c2.8,2.6,4.8,4.7,4.8,8.9c0,3.5-1.7,5.4-4.9,5.4c-4.8,0-6-5-6.3-9.9l-5.5,1.5
			c0.4,8,4.1,13.5,11.8,13.5C371.1,76.6,375.5,72.4,375.5,65.6z M386.6,34.5h11v-4.6h-17.2v46.2h6.2V54.5h8.5v-4.6h-8.5V34.5z
			 M408.1,54.5h9V50h-9V34.7h11v-4.8h-17.3v46.2h17.4v-4.6H408v-17H408.1z M430.4,54.4h4.8l5.8,21.7h6L440.8,53
			c4-1.4,5.5-5.4,5.5-10.8c0-8.8-4.2-12.3-13.1-12.3h-9v46.2h6.2V54.4z M430.4,34.5h2.7c5.7,0,7.1,2.2,7.1,7.6
			c0,5.9-2.3,7.6-7.5,7.6h-2.4L430.4,34.5L430.4,34.5z M470.1,71.5H459v-17h9V50h-9V34.7h11v-4.8h-17.3v46.2h17.4V71.5z M480.4,44.6
			l12.8,31.5h4V29.9H492v30.7l-12.6-30.7h-4.2v46.2h5.3L480.4,44.6L480.4,44.6z M515.3,29.5c-9.5,0-12,6.1-12,15.4v16.3
			c0,8.6,2.5,15.3,12,15.3c8.7,0,11.2-5.8,11.2-14.2v-3.4h-5.9v3.4c0,5.5-0.3,9.2-5.3,9.2c-4.3,0-5.8-2.3-5.8-9.2V44
			c0-5.7,0.5-9.5,5.8-9.5c5.2,0,5.3,3.5,5.3,8.7v3.2h5.9v-3.6C526.5,34.5,523.6,29.5,515.3,29.5z M538.9,29.9h-6.1v46.2h6.1V29.9z
			 M560.7,64.5l2,11.6h5.9l-9.5-46.2h-6l-9.5,46.2h5.8l2.1-11.6H560.7z M556.1,39l3.7,20.8h-7.4L556.1,39z M604.8,51.3
			c4.1-0.8,6.5-3.7,6.5-9.3c0-10.3-6.5-12.1-14.2-12.1h-11.6v46.2h13.7c8.6,0,13.5-4.1,13.5-13.7C612.7,55.9,609.9,52,604.8,51.3z
			 M595.4,36.8h1.7c3.7,0,5.6,1.9,5.6,5.5c0,3.9-0.9,6.1-5.4,6.1h-1.9L595.4,36.8L595.4,36.8z M597.5,69h-2.1V55.1h2
			c4.3,0,5.8,1.9,5.8,7.1C603.2,66.7,601.8,69,597.5,69z M624.1,29.9l-8.4,46.2h9.3l1.5-9.7h6.5l1.5,9.7h9.1l-8.3-46.2
			C635.3,29.9,624.1,29.9,624.1,29.9z M627.4,60.2l2.4-18l2.4,18H627.4z M664.2,52.2L655,29.9h-6.9v46.2h8.4V52.2l9.1,23.9h6.7V29.9
			h-8.1V52.2z M691.7,29.3c-10.2,0-13.4,5.9-13.4,15.4v16.6c0,9.3,3.2,15.4,13.4,15.4c9.9,0,12.8-5.9,12.8-13.7v-4h-9.6v4.8
			c0,2.8-0.1,5.6-3.2,5.6c-2.9,0-3.4-2.5-3.4-5.6V42.2c0-2.8,0.3-5.7,3.4-5.7c3.1,0,3.2,2.9,3.2,5.5v4.6h9.6v-4
			C704.5,34.8,701.5,29.3,691.7,29.3z M716.2,29.9l-8.4,46.2h9.3l1.5-9.7h6.5l1.5,9.7h9.1l-8.3-46.2
			C727.4,29.9,716.2,29.9,716.2,29.9z M719.5,60.2l2.4-18l2.4,18H719.5z M767.2,42.1c0-9.7-5.8-12.2-14.8-12.2h-12.3v46.2h9.8V55.4
			h2.8l4.9,20.7h10.2l-6.1-22.3C766.2,51.6,767.2,47.8,767.2,42.1z M752.8,49.5H750V36.8h3.2c3.7,0,4.9,2.3,4.9,6.3
			C758.1,47.1,756.9,49.5,752.8,49.5z M773.2,76.1h9.8V29.9h-9.8V76.1z M807.2,29.9H796l-8.4,46.2h9.3l1.5-9.7h6.5l1.5,9.7h9.1
			L807.2,29.9z M799.3,60.2l2.4-18l2.4,18H799.3z"/>
	</g>
</g>
</svg>
